%TF.GenerationSoftware,Altium Limited,Altium Designer,25.0.2 (28)*%
G04 Layer_Color=8388736*
%FSLAX45Y45*%
%MOMM*%
%TF.SameCoordinates,C223F9BF-7E24-4A28-B258-71FBB46568CF*%
%TF.FilePolarity,Negative*%
%TF.FileFunction,Soldermask,Top*%
%TF.Part,Single*%
G01*
G75*
%TA.AperFunction,ConnectorPad*%
%ADD15R,1.80000X3.90000*%
%ADD16R,1.30000X4.50000*%
%ADD18R,1.38000X0.45000*%
%ADD19R,1.55000X1.42500*%
%ADD20R,1.90000X1.00000*%
%ADD21R,1.90000X1.80000*%
%ADD22R,1.30000X1.65000*%
%TA.AperFunction,SMDPad,CuDef*%
%ADD24R,0.75000X0.90000*%
%ADD26R,0.52000X0.52000*%
%ADD28R,3.50000X1.25000*%
%ADD29R,0.87213X1.00429*%
%TA.AperFunction,BGAPad,CuDef*%
%ADD30C,0.78700*%
%TA.AperFunction,SMDPad,CuDef*%
%ADD38R,0.50000X0.70000*%
%ADD41R,0.90000X0.75000*%
%ADD45R,0.50000X0.60000*%
%TA.AperFunction,ComponentPad*%
%ADD51C,0.99100*%
%TA.AperFunction,SMDPad,CuDef*%
%ADD59R,0.80320X0.85320*%
%ADD60R,0.72320X0.76320*%
%ADD61R,0.75320X0.70320*%
%ADD62R,1.60320X1.35320*%
%ADD63R,5.80320X5.80320*%
%ADD64O,0.45320X1.00320*%
%ADD65O,1.00320X0.45320*%
%ADD66R,2.80320X2.90320*%
%ADD67R,0.55320X1.00320*%
%ADD68R,1.05320X0.55320*%
%ADD69R,0.65320X0.65320*%
%ADD70R,0.76320X0.72320*%
%ADD71R,0.85320X0.80320*%
%ADD72R,1.75320X1.70320*%
%ADD73R,0.90320X0.95320*%
%ADD74R,1.70320X1.75320*%
%ADD75R,0.95320X0.90320*%
%ADD76R,1.15320X0.90320*%
%TA.AperFunction,ViaPad*%
%ADD77C,1.35520*%
%ADD78C,3.40320*%
%ADD79C,0.90320*%
%ADD80C,0.70320*%
%ADD81C,0.91440*%
%ADD82C,0.80320*%
D15*
X11190000Y6120000D02*
D03*
X9300000D02*
D03*
D16*
X10870000Y5440000D02*
D03*
X10620000D02*
D03*
X10370000D02*
D03*
X10120000D02*
D03*
X9870000D02*
D03*
X9620000D02*
D03*
D18*
X12400000Y7700000D02*
D03*
Y7635000D02*
D03*
Y7570000D02*
D03*
Y7505000D02*
D03*
Y7440000D02*
D03*
D19*
X12408500Y7818750D02*
D03*
Y7321250D02*
D03*
D20*
X12666000Y7725000D02*
D03*
D21*
Y7455000D02*
D03*
D22*
Y7907500D02*
D03*
Y7232500D02*
D03*
D24*
X10625000Y6850000D02*
D03*
X10505000D02*
D03*
D26*
X9765000Y7250000D02*
D03*
X9685000D02*
D03*
X9425000D02*
D03*
X9505000D02*
D03*
D28*
X11825000Y5795500D02*
D03*
D29*
X11596000Y6454500D02*
D03*
X11825000D02*
D03*
X12054000D02*
D03*
D30*
X11227000Y8434900D02*
D03*
Y8561900D02*
D03*
X11354000D02*
D03*
X11481000Y8434900D02*
D03*
Y8561900D02*
D03*
X11354000Y8434900D02*
D03*
D38*
X12620000Y5985000D02*
D03*
Y6075000D02*
D03*
D41*
X9777501Y7640000D02*
D03*
Y7759999D02*
D03*
X11850000Y7045000D02*
D03*
Y7165000D02*
D03*
X12075000Y7055000D02*
D03*
Y7175000D02*
D03*
D45*
X11007501Y7225000D02*
D03*
X11097501D02*
D03*
D51*
X11608000Y8498400D02*
D03*
X11100000Y8600000D02*
D03*
Y8396800D02*
D03*
D59*
X10425000Y8225000D02*
D03*
Y8140000D02*
D03*
D60*
X10975000Y7788000D02*
D03*
Y7712000D02*
D03*
X9975000Y7225000D02*
D03*
Y7301000D02*
D03*
X9500000Y8425000D02*
D03*
Y8349000D02*
D03*
X10190000Y8438000D02*
D03*
Y8362000D02*
D03*
X9500000Y8613000D02*
D03*
Y8537000D02*
D03*
X9977501Y7726000D02*
D03*
Y7650000D02*
D03*
D61*
X9687500Y7400000D02*
D03*
X9762500D02*
D03*
D62*
X9480000Y6890000D02*
D03*
X9700000D02*
D03*
Y7050000D02*
D03*
X9480000D02*
D03*
D63*
X10477501Y7450000D02*
D03*
D64*
X10202501Y7790000D02*
D03*
X10252501D02*
D03*
X10302501D02*
D03*
X10352501D02*
D03*
X10402501D02*
D03*
X10452501D02*
D03*
X10502501D02*
D03*
X10552501D02*
D03*
X10602501D02*
D03*
X10652501D02*
D03*
X10702501D02*
D03*
X10752501D02*
D03*
Y7110000D02*
D03*
X10702501D02*
D03*
X10652501D02*
D03*
X10602501D02*
D03*
X10552501D02*
D03*
X10502501D02*
D03*
X10452501D02*
D03*
X10402501D02*
D03*
X10352501D02*
D03*
X10302501D02*
D03*
X10252501D02*
D03*
X10202501D02*
D03*
D65*
X10817501Y7725000D02*
D03*
Y7675000D02*
D03*
Y7625000D02*
D03*
Y7575000D02*
D03*
Y7525000D02*
D03*
Y7475000D02*
D03*
Y7425000D02*
D03*
Y7375000D02*
D03*
Y7325000D02*
D03*
Y7275000D02*
D03*
Y7225000D02*
D03*
Y7175000D02*
D03*
X10137501D02*
D03*
Y7225000D02*
D03*
Y7275000D02*
D03*
Y7325000D02*
D03*
Y7375000D02*
D03*
Y7425000D02*
D03*
Y7475000D02*
D03*
Y7525000D02*
D03*
Y7575000D02*
D03*
Y7625000D02*
D03*
Y7675000D02*
D03*
Y7725000D02*
D03*
D66*
X9852501Y8450000D02*
D03*
D67*
X9727501Y8250000D02*
D03*
X9777501D02*
D03*
X9827501D02*
D03*
X9877501D02*
D03*
X9927501D02*
D03*
X9977501D02*
D03*
X9727501Y8650000D02*
D03*
X9777501D02*
D03*
X9827501D02*
D03*
X9877501D02*
D03*
X9927501D02*
D03*
X9977501D02*
D03*
D68*
X10050001Y8325000D02*
D03*
Y8375000D02*
D03*
Y8425000D02*
D03*
Y8475000D02*
D03*
Y8525000D02*
D03*
Y8575000D02*
D03*
X9655001Y8325000D02*
D03*
Y8375000D02*
D03*
Y8425000D02*
D03*
Y8475000D02*
D03*
Y8525000D02*
D03*
Y8575000D02*
D03*
D69*
X10612501Y8350000D02*
D03*
X10692501D02*
D03*
X10492501D02*
D03*
X10412501D02*
D03*
D70*
X11213000Y8950000D02*
D03*
X11137000D02*
D03*
X10853501Y6950000D02*
D03*
X10777501D02*
D03*
X10187000Y8000000D02*
D03*
X10263000D02*
D03*
X9724000Y8110000D02*
D03*
X9800000D02*
D03*
D71*
X11357500Y8950000D02*
D03*
X11442500D02*
D03*
D72*
X12327501Y5985000D02*
D03*
Y6165000D02*
D03*
D73*
X12620000Y6397500D02*
D03*
Y6302500D02*
D03*
D74*
X11650000Y6760000D02*
D03*
X11830000D02*
D03*
D75*
X11002501Y7075000D02*
D03*
X11097501D02*
D03*
D76*
X12075000Y7340000D02*
D03*
X11910000D02*
D03*
D77*
X12610000Y5780000D02*
D03*
X8890000Y8630000D02*
D03*
D78*
X9000000Y9000000D02*
D03*
Y5500000D02*
D03*
X12500000Y9000000D02*
D03*
Y5500000D02*
D03*
D79*
X10220000Y8660000D02*
D03*
X11560000Y7990000D02*
D03*
X11390000D02*
D03*
X11350000Y8680000D02*
D03*
X11230000D02*
D03*
X11020000Y8950000D02*
D03*
X9670000Y7990000D02*
D03*
X9520000Y7900000D02*
D03*
X11370000Y5840000D02*
D03*
X10870000Y5810000D02*
D03*
X12620000Y6520000D02*
D03*
X12400000Y6340000D02*
D03*
X12270000D02*
D03*
X12050000Y6350000D02*
D03*
X12000000Y6700000D02*
D03*
Y6825000D02*
D03*
X12075000Y6925000D02*
D03*
X11850000D02*
D03*
X9875000Y7275000D02*
D03*
X9625000Y7640000D02*
D03*
X9325000Y7250000D02*
D03*
Y7050000D02*
D03*
X9700000Y6750000D02*
D03*
X11000000Y6950000D02*
D03*
X10775000Y6850000D02*
D03*
X10500000Y6700000D02*
D03*
X11075000Y7712000D02*
D03*
X10325000Y8225000D02*
D03*
X10290000Y8360000D02*
D03*
X10260000Y8100000D02*
D03*
X9900000Y8110000D02*
D03*
X9410000Y8349000D02*
D03*
Y8537000D02*
D03*
X10575000Y8475000D02*
D03*
X10375000D02*
D03*
D80*
X12510000Y7700000D02*
D03*
X10697501Y7230000D02*
D03*
X10587501D02*
D03*
X10477501D02*
D03*
X10367501D02*
D03*
X10257501D02*
D03*
X10697501Y7340000D02*
D03*
X10587501D02*
D03*
X10477501D02*
D03*
X10367501D02*
D03*
X10257501D02*
D03*
X10697501Y7450000D02*
D03*
X10587501D02*
D03*
X10477501D02*
D03*
X10367501D02*
D03*
X10257501D02*
D03*
X10697501Y7560000D02*
D03*
X10587501D02*
D03*
X10477501D02*
D03*
X10367501D02*
D03*
X10257501D02*
D03*
X10697501Y7670000D02*
D03*
X10587501D02*
D03*
X10477501D02*
D03*
X10367501D02*
D03*
X10257501D02*
D03*
X9907501Y8505000D02*
D03*
Y8395000D02*
D03*
X9797501D02*
D03*
Y8505000D02*
D03*
D81*
X9690000Y5910000D02*
D03*
D82*
X9875000Y7400000D02*
D03*
%TF.MD5,ee5265adf6b77db9f43bc8bd374f569e*%
M02*
