%TF.GenerationSoftware,Altium Limited,Altium Designer,25.0.2 (28)*%
G04 Layer_Color=16711935*
%FSLAX45Y45*%
%MOMM*%
%TF.SameCoordinates,C223F9BF-7E24-4A28-B258-71FBB46568CF*%
%TF.FilePolarity,Negative*%
%TF.FileFunction,Soldermask,Bot*%
%TF.Part,Single*%
G01*
G75*
%TA.AperFunction,ComponentPad*%
%ADD51C,0.99100*%
%TA.AperFunction,ViaPad*%
%ADD77C,1.35520*%
%ADD78C,3.40320*%
%ADD79C,0.90320*%
%ADD80C,0.70320*%
%ADD81C,0.91440*%
%ADD82C,0.80320*%
D51*
X11608000Y8498400D02*
D03*
X11100000Y8600000D02*
D03*
Y8396800D02*
D03*
D77*
X12610000Y5780000D02*
D03*
X8890000Y8630000D02*
D03*
D78*
X9000000Y9000000D02*
D03*
Y5500000D02*
D03*
X12500000Y9000000D02*
D03*
Y5500000D02*
D03*
D79*
X10220000Y8660000D02*
D03*
X11560000Y7990000D02*
D03*
X11390000D02*
D03*
X11350000Y8680000D02*
D03*
X11230000D02*
D03*
X11020000Y8950000D02*
D03*
X9670000Y7990000D02*
D03*
X9520000Y7900000D02*
D03*
X11370000Y5840000D02*
D03*
X10870000Y5810000D02*
D03*
X12620000Y6520000D02*
D03*
X12400000Y6340000D02*
D03*
X12270000D02*
D03*
X12050000Y6350000D02*
D03*
X12000000Y6700000D02*
D03*
Y6825000D02*
D03*
X12075000Y6925000D02*
D03*
X11850000D02*
D03*
X9875000Y7275000D02*
D03*
X9625000Y7640000D02*
D03*
X9325000Y7250000D02*
D03*
Y7050000D02*
D03*
X9700000Y6750000D02*
D03*
X11000000Y6950000D02*
D03*
X10775000Y6850000D02*
D03*
X10500000Y6700000D02*
D03*
X11075000Y7712000D02*
D03*
X10325000Y8225000D02*
D03*
X10290000Y8360000D02*
D03*
X10260000Y8100000D02*
D03*
X9900000Y8110000D02*
D03*
X9410000Y8349000D02*
D03*
Y8537000D02*
D03*
X10575000Y8475000D02*
D03*
X10375000D02*
D03*
D80*
X12510000Y7700000D02*
D03*
X10697501Y7230000D02*
D03*
X10587501D02*
D03*
X10477501D02*
D03*
X10367501D02*
D03*
X10257501D02*
D03*
X10697501Y7340000D02*
D03*
X10587501D02*
D03*
X10477501D02*
D03*
X10367501D02*
D03*
X10257501D02*
D03*
X10697501Y7450000D02*
D03*
X10587501D02*
D03*
X10477501D02*
D03*
X10367501D02*
D03*
X10257501D02*
D03*
X10697501Y7560000D02*
D03*
X10587501D02*
D03*
X10477501D02*
D03*
X10367501D02*
D03*
X10257501D02*
D03*
X10697501Y7670000D02*
D03*
X10587501D02*
D03*
X10477501D02*
D03*
X10367501D02*
D03*
X10257501D02*
D03*
X9907501Y8505000D02*
D03*
Y8395000D02*
D03*
X9797501D02*
D03*
Y8505000D02*
D03*
D81*
X9690000Y5910000D02*
D03*
D82*
X9875000Y7400000D02*
D03*
%TF.MD5,464375cd5f98b69fc81ff4454e2c83b0*%
M02*
