%TF.GenerationSoftware,Altium Limited,Altium Designer,25.0.2 (28)*%
G04 Layer_Physical_Order=4*
G04 Layer_Color=16711680*
%FSLAX45Y45*%
%MOMM*%
%TF.SameCoordinates,C223F9BF-7E24-4A28-B258-71FBB46568CF*%
%TF.FilePolarity,Positive*%
%TF.FileFunction,Copper,L4,Bot,Signal*%
%TF.Part,Single*%
G01*
G75*
%TA.AperFunction,Conductor*%
%ADD11C,0.50000*%
%ADD13C,0.20000*%
%TA.AperFunction,ViaPad*%
%ADD49C,1.15200*%
%ADD50C,3.20000*%
%TA.AperFunction,ComponentPad*%
%ADD51C,0.99100*%
%TA.AperFunction,ViaPad*%
%ADD52C,0.70000*%
%ADD53C,0.50000*%
%ADD54C,0.71120*%
%ADD55C,0.60000*%
D11*
X10220000Y8654588D02*
X10290000Y8584588D01*
X10220000Y8654588D02*
Y8660000D01*
X10290000Y8360000D02*
Y8584588D01*
X11390000Y7990000D02*
X11560000D01*
X9520000Y7900000D02*
X9606173Y7986173D01*
X9666173D01*
X9670000Y7990000D01*
X9810000Y5910000D02*
X9830000Y5930000D01*
X9690000Y5910000D02*
X9810000D01*
X9830000Y5930000D02*
X11010000D01*
X11100000Y5840000D01*
X11370000D01*
D13*
X10935701Y8120000D02*
X11197000Y8381299D01*
Y8534976D01*
X11342024Y8680000D01*
X10800000Y8120000D02*
X10935701D01*
X11342024Y8680000D02*
X11350000D01*
X10590000Y7910000D02*
X10800000Y8120000D01*
X9990000Y7910000D02*
X10590000D01*
X9875000Y7795000D02*
X9990000Y7910000D01*
X9875000Y7400000D02*
Y7795000D01*
X10375000Y8475000D02*
X10575000D01*
D49*
X12610000Y5780000D02*
D03*
X8890000Y8630000D02*
D03*
D50*
X9000000Y9000000D02*
D03*
Y5500000D02*
D03*
X12500000Y9000000D02*
D03*
Y5500000D02*
D03*
D51*
X11608000Y8498400D02*
D03*
X11100000Y8600000D02*
D03*
Y8396800D02*
D03*
D52*
X10220000Y8660000D02*
D03*
X11560000Y7990000D02*
D03*
X11390000D02*
D03*
X11350000Y8680000D02*
D03*
X11230000D02*
D03*
X11020000Y8950000D02*
D03*
X9670000Y7990000D02*
D03*
X9520000Y7900000D02*
D03*
X11370000Y5840000D02*
D03*
X10870000Y5810000D02*
D03*
X12620000Y6520000D02*
D03*
X12400000Y6340000D02*
D03*
X12270000D02*
D03*
X12050000Y6350000D02*
D03*
X12000000Y6700000D02*
D03*
Y6825000D02*
D03*
X12075000Y6925000D02*
D03*
X11850000D02*
D03*
X9875000Y7275000D02*
D03*
X9625000Y7640000D02*
D03*
X9325000Y7250000D02*
D03*
Y7050000D02*
D03*
X9700000Y6750000D02*
D03*
X11000000Y6950000D02*
D03*
X10775000Y6850000D02*
D03*
X10500000Y6700000D02*
D03*
X11075000Y7712000D02*
D03*
X10325000Y8225000D02*
D03*
X10290000Y8360000D02*
D03*
X10260000Y8100000D02*
D03*
X9900000Y8110000D02*
D03*
X9410000Y8349000D02*
D03*
Y8537000D02*
D03*
X10575000Y8475000D02*
D03*
X10375000D02*
D03*
D53*
X12510000Y7700000D02*
D03*
X10697501Y7230000D02*
D03*
X10587501D02*
D03*
X10477501D02*
D03*
X10367501D02*
D03*
X10257501D02*
D03*
X10697501Y7340000D02*
D03*
X10587501D02*
D03*
X10477501D02*
D03*
X10367501D02*
D03*
X10257501D02*
D03*
X10697501Y7450000D02*
D03*
X10587501D02*
D03*
X10477501D02*
D03*
X10367501D02*
D03*
X10257501D02*
D03*
X10697501Y7560000D02*
D03*
X10587501D02*
D03*
X10477501D02*
D03*
X10367501D02*
D03*
X10257501D02*
D03*
X10697501Y7670000D02*
D03*
X10587501D02*
D03*
X10477501D02*
D03*
X10367501D02*
D03*
X10257501D02*
D03*
X9907501Y8505000D02*
D03*
Y8395000D02*
D03*
X9797501D02*
D03*
Y8505000D02*
D03*
D54*
X9690000Y5910000D02*
D03*
D55*
X9875000Y7400000D02*
D03*
%TF.MD5,93ae35a61de6a5473a8cb8b6101351bb*%
M02*
