%TF.GenerationSoftware,Altium Limited,Altium Designer,25.0.2 (28)*%
G04 Layer_Color=8421504*
%FSLAX45Y45*%
%MOMM*%
%TF.SameCoordinates,C223F9BF-7E24-4A28-B258-71FBB46568CF*%
%TF.FilePolarity,Positive*%
%TF.FileFunction,Paste,Top*%
%TF.Part,Single*%
G01*
G75*
%TA.AperFunction,ConnectorPad*%
%ADD15R,1.80000X3.90000*%
%ADD16R,1.30000X4.50000*%
%TA.AperFunction,SMDPad,CuDef*%
%ADD17R,0.60000X0.65000*%
%TA.AperFunction,ConnectorPad*%
%ADD18R,1.38000X0.45000*%
%ADD19R,1.55000X1.42500*%
%ADD20R,1.90000X1.00000*%
%ADD21R,1.90000X1.80000*%
%ADD22R,1.30000X1.65000*%
%TA.AperFunction,SMDPad,CuDef*%
%ADD23R,0.52000X0.56000*%
%ADD24R,0.75000X0.90000*%
%ADD25R,0.55000X0.50000*%
%ADD26R,0.52000X0.52000*%
%ADD27R,1.40000X1.15000*%
%ADD28R,3.50000X1.25000*%
%ADD29R,0.87213X1.00429*%
%ADD31R,5.60000X5.60000*%
%ADD32O,0.25000X0.80000*%
%ADD33O,0.80000X0.25000*%
%ADD34R,2.60000X2.70000*%
%ADD35R,0.35000X0.80000*%
%ADD36R,0.85000X0.35000*%
%ADD37R,0.45000X0.45000*%
%ADD38R,0.50000X0.70000*%
%ADD39R,0.56000X0.52000*%
%ADD40R,0.65000X0.60000*%
%ADD41R,0.90000X0.75000*%
%ADD42R,1.55000X1.50000*%
%ADD43R,0.70000X0.75000*%
%ADD44R,1.50000X1.55000*%
%ADD45R,0.50000X0.60000*%
%ADD46R,0.75000X0.70000*%
%ADD47R,0.95000X0.70000*%
D15*
X11190000Y6120000D02*
D03*
X9300000D02*
D03*
D16*
X10870000Y5440000D02*
D03*
X10620000D02*
D03*
X10370000D02*
D03*
X10120000D02*
D03*
X9870000D02*
D03*
X9620000D02*
D03*
D17*
X10425000Y8225000D02*
D03*
Y8140000D02*
D03*
D18*
X12400000Y7700000D02*
D03*
Y7635000D02*
D03*
Y7570000D02*
D03*
Y7505000D02*
D03*
Y7440000D02*
D03*
D19*
X12408500Y7818750D02*
D03*
Y7321250D02*
D03*
D20*
X12666000Y7725000D02*
D03*
D21*
Y7455000D02*
D03*
D22*
Y7907500D02*
D03*
Y7232500D02*
D03*
D23*
X10975000Y7788000D02*
D03*
Y7712000D02*
D03*
X9975000Y7225000D02*
D03*
Y7301000D02*
D03*
X9500000Y8425000D02*
D03*
Y8349000D02*
D03*
X10190000Y8438000D02*
D03*
Y8362000D02*
D03*
X9500000Y8613000D02*
D03*
Y8537000D02*
D03*
X9977501Y7726000D02*
D03*
Y7650000D02*
D03*
D24*
X10625000Y6850000D02*
D03*
X10505000D02*
D03*
D25*
X9687500Y7400000D02*
D03*
X9762500D02*
D03*
D26*
X9765000Y7250000D02*
D03*
X9685000D02*
D03*
X9425000D02*
D03*
X9505000D02*
D03*
D27*
X9480000Y6890000D02*
D03*
X9700000D02*
D03*
Y7050000D02*
D03*
X9480000D02*
D03*
D28*
X11825000Y5795500D02*
D03*
D29*
X11596000Y6454500D02*
D03*
X11825000D02*
D03*
X12054000D02*
D03*
D31*
X10477501Y7450000D02*
D03*
D32*
X10202501Y7790000D02*
D03*
X10252501D02*
D03*
X10302501D02*
D03*
X10352501D02*
D03*
X10402501D02*
D03*
X10452501D02*
D03*
X10502501D02*
D03*
X10552501D02*
D03*
X10602501D02*
D03*
X10652501D02*
D03*
X10702501D02*
D03*
X10752501D02*
D03*
Y7110000D02*
D03*
X10702501D02*
D03*
X10652501D02*
D03*
X10602501D02*
D03*
X10552501D02*
D03*
X10502501D02*
D03*
X10452501D02*
D03*
X10402501D02*
D03*
X10352501D02*
D03*
X10302501D02*
D03*
X10252501D02*
D03*
X10202501D02*
D03*
D33*
X10817501Y7725000D02*
D03*
Y7675000D02*
D03*
Y7625000D02*
D03*
Y7575000D02*
D03*
Y7525000D02*
D03*
Y7475000D02*
D03*
Y7425000D02*
D03*
Y7375000D02*
D03*
Y7325000D02*
D03*
Y7275000D02*
D03*
Y7225000D02*
D03*
Y7175000D02*
D03*
X10137501D02*
D03*
Y7225000D02*
D03*
Y7275000D02*
D03*
Y7325000D02*
D03*
Y7375000D02*
D03*
Y7425000D02*
D03*
Y7475000D02*
D03*
Y7525000D02*
D03*
Y7575000D02*
D03*
Y7625000D02*
D03*
Y7675000D02*
D03*
Y7725000D02*
D03*
D34*
X9852501Y8450000D02*
D03*
D35*
X9727501Y8250000D02*
D03*
X9777501D02*
D03*
X9827501D02*
D03*
X9877501D02*
D03*
X9927501D02*
D03*
X9977501D02*
D03*
X9727501Y8650000D02*
D03*
X9777501D02*
D03*
X9827501D02*
D03*
X9877501D02*
D03*
X9927501D02*
D03*
X9977501D02*
D03*
D36*
X10050001Y8325000D02*
D03*
Y8375000D02*
D03*
Y8425000D02*
D03*
Y8475000D02*
D03*
Y8525000D02*
D03*
Y8575000D02*
D03*
X9655001Y8325000D02*
D03*
Y8375000D02*
D03*
Y8425000D02*
D03*
Y8475000D02*
D03*
Y8525000D02*
D03*
Y8575000D02*
D03*
D37*
X10612501Y8350000D02*
D03*
X10692501D02*
D03*
X10492501D02*
D03*
X10412501D02*
D03*
D38*
X12620000Y5985000D02*
D03*
Y6075000D02*
D03*
D39*
X11213000Y8950000D02*
D03*
X11137000D02*
D03*
X10853501Y6950000D02*
D03*
X10777501D02*
D03*
X10187000Y8000000D02*
D03*
X10263000D02*
D03*
X9724000Y8110000D02*
D03*
X9800000D02*
D03*
D40*
X11357500Y8950000D02*
D03*
X11442500D02*
D03*
D41*
X9777501Y7640000D02*
D03*
Y7759999D02*
D03*
X11850000Y7045000D02*
D03*
Y7165000D02*
D03*
X12075000Y7055000D02*
D03*
Y7175000D02*
D03*
D42*
X12327501Y5985000D02*
D03*
Y6165000D02*
D03*
D43*
X12620000Y6397500D02*
D03*
Y6302500D02*
D03*
D44*
X11650000Y6760000D02*
D03*
X11830000D02*
D03*
D45*
X11007501Y7225000D02*
D03*
X11097501D02*
D03*
D46*
X11002501Y7075000D02*
D03*
X11097501D02*
D03*
D47*
X12075000Y7340000D02*
D03*
X11910000D02*
D03*
%TF.MD5,623f41bfbdc32536472ae2ea4276cb9a*%
M02*
